<mxfile host="app.diagrams.net" agent="Mozilla/5.0 (X11; Ubuntu; Linux x86_64; rv:132.0) Gecko/20100101 Firefox/132.0" version="24.8.4">
  <diagram name="Page-1" id="WIh_7Fd6moV567G7Xiqr">
    <mxGraphModel dx="1434" dy="785" grid="1" gridSize="10" guides="1" tooltips="1" connect="1" arrows="1" fold="1" page="1" pageScale="1" pageWidth="850" pageHeight="1100" math="0" shadow="0">
      <root>
        <mxCell id="0" />
        <mxCell id="1" parent="0" />
        <mxCell id="1j1bVNgDE6YV_dy9rrkY-1" value="Seq. number" style="rounded=0;whiteSpace=wrap;html=1;dashed=1;fillColor=#dae8fc;strokeColor=#6c8ebf;" vertex="1" parent="1">
          <mxGeometry x="60" y="380" width="120" height="60" as="geometry" />
        </mxCell>
        <mxCell id="1j1bVNgDE6YV_dy9rrkY-2" value="Packet Len" style="rounded=0;whiteSpace=wrap;html=1;dashed=1;fillColor=#ffe6cc;strokeColor=#d79b00;" vertex="1" parent="1">
          <mxGeometry x="200" y="380" width="120" height="60" as="geometry" />
        </mxCell>
        <mxCell id="1j1bVNgDE6YV_dy9rrkY-3" value="Pad Len" style="rounded=0;whiteSpace=wrap;html=1;dashed=1;fillColor=#ffe6cc;strokeColor=#d79b00;" vertex="1" parent="1">
          <mxGeometry x="320" y="380" width="80" height="60" as="geometry" />
        </mxCell>
        <mxCell id="1j1bVNgDE6YV_dy9rrkY-4" value="Payload" style="rounded=0;whiteSpace=wrap;html=1;dashed=1;fillColor=#ffe6cc;strokeColor=#d79b00;" vertex="1" parent="1">
          <mxGeometry x="400" y="380" width="240" height="60" as="geometry" />
        </mxCell>
        <mxCell id="1j1bVNgDE6YV_dy9rrkY-5" value="Pad" style="rounded=0;whiteSpace=wrap;html=1;dashed=1;fillColor=#ffe6cc;strokeColor=#d79b00;" vertex="1" parent="1">
          <mxGeometry x="640" y="380" width="80" height="60" as="geometry" />
        </mxCell>
        <mxCell id="1j1bVNgDE6YV_dy9rrkY-6" value="MAC" style="rounded=0;whiteSpace=wrap;html=1;dashed=1;fillColor=#dae8fc;strokeColor=#6c8ebf;" vertex="1" parent="1">
          <mxGeometry x="740" y="380" width="80" height="60" as="geometry" />
        </mxCell>
        <mxCell id="1j1bVNgDE6YV_dy9rrkY-8" value="" style="edgeStyle=orthogonalEdgeStyle;rounded=0;orthogonalLoop=1;jettySize=auto;html=1;dashed=1;entryX=0.129;entryY=0.017;entryDx=0;entryDy=0;entryPerimeter=0;fillColor=#e1d5e7;strokeColor=#9673a6;" edge="1" parent="1" source="1j1bVNgDE6YV_dy9rrkY-7" target="1j1bVNgDE6YV_dy9rrkY-4">
          <mxGeometry relative="1" as="geometry" />
        </mxCell>
        <mxCell id="1j1bVNgDE6YV_dy9rrkY-7" value="CBC encryption (chained IV)" style="rounded=0;whiteSpace=wrap;html=1;dashed=1;fillColor=#e1d5e7;strokeColor=#9673a6;" vertex="1" parent="1">
          <mxGeometry x="180" y="250" width="120" height="60" as="geometry" />
        </mxCell>
        <mxCell id="1j1bVNgDE6YV_dy9rrkY-10" style="edgeStyle=orthogonalEdgeStyle;rounded=0;orthogonalLoop=1;jettySize=auto;html=1;exitX=0;exitY=0.5;exitDx=0;exitDy=0;entryX=0.5;entryY=0;entryDx=0;entryDy=0;dashed=1;fillColor=#e1d5e7;strokeColor=#9673a6;" edge="1" parent="1" source="1j1bVNgDE6YV_dy9rrkY-9" target="1j1bVNgDE6YV_dy9rrkY-1">
          <mxGeometry relative="1" as="geometry" />
        </mxCell>
        <mxCell id="1j1bVNgDE6YV_dy9rrkY-11" style="edgeStyle=orthogonalEdgeStyle;rounded=0;orthogonalLoop=1;jettySize=auto;html=1;exitX=1;exitY=0.5;exitDx=0;exitDy=0;dashed=1;fillColor=#e1d5e7;strokeColor=#9673a6;" edge="1" parent="1" source="1j1bVNgDE6YV_dy9rrkY-9" target="1j1bVNgDE6YV_dy9rrkY-6">
          <mxGeometry relative="1" as="geometry" />
        </mxCell>
        <mxCell id="1j1bVNgDE6YV_dy9rrkY-9" value="Plain text" style="rounded=0;whiteSpace=wrap;html=1;dashed=1;fillColor=#e1d5e7;strokeColor=#9673a6;" vertex="1" parent="1">
          <mxGeometry x="370" y="110" width="120" height="60" as="geometry" />
        </mxCell>
        <mxCell id="1j1bVNgDE6YV_dy9rrkY-13" style="edgeStyle=orthogonalEdgeStyle;rounded=0;orthogonalLoop=1;jettySize=auto;html=1;exitX=1;exitY=0.5;exitDx=0;exitDy=0;entryX=0.5;entryY=0;entryDx=0;entryDy=0;dashed=1;fillColor=#e1d5e7;strokeColor=#9673a6;" edge="1" parent="1" source="1j1bVNgDE6YV_dy9rrkY-12" target="1j1bVNgDE6YV_dy9rrkY-6">
          <mxGeometry relative="1" as="geometry" />
        </mxCell>
        <mxCell id="1j1bVNgDE6YV_dy9rrkY-12" value="MAC and Encrypt scheme since MAC is computed over the plain text. It may leak the plain-text information" style="rounded=0;whiteSpace=wrap;html=1;dashed=1;fillColor=#e1d5e7;strokeColor=#9673a6;" vertex="1" parent="1">
          <mxGeometry x="560" y="210" width="160" height="100" as="geometry" />
        </mxCell>
        <mxCell id="1j1bVNgDE6YV_dy9rrkY-15" value="" style="edgeStyle=orthogonalEdgeStyle;rounded=0;orthogonalLoop=1;jettySize=auto;html=1;fillColor=#f8cecc;strokeColor=#b85450;dashed=1;" edge="1" parent="1" source="1j1bVNgDE6YV_dy9rrkY-14" target="1j1bVNgDE6YV_dy9rrkY-2">
          <mxGeometry relative="1" as="geometry" />
        </mxCell>
        <mxCell id="1j1bVNgDE6YV_dy9rrkY-18" style="edgeStyle=orthogonalEdgeStyle;rounded=0;orthogonalLoop=1;jettySize=auto;html=1;exitX=1;exitY=0.5;exitDx=0;exitDy=0;entryX=0.5;entryY=0;entryDx=0;entryDy=0;fillColor=#f8cecc;strokeColor=#b85450;dashed=1;" edge="1" parent="1" source="1j1bVNgDE6YV_dy9rrkY-14" target="1j1bVNgDE6YV_dy9rrkY-16">
          <mxGeometry relative="1" as="geometry" />
        </mxCell>
        <mxCell id="1j1bVNgDE6YV_dy9rrkY-14" value="Step 1: Decrypt packet length field only" style="rounded=0;whiteSpace=wrap;html=1;fillColor=#f8cecc;strokeColor=#b85450;dashed=1;" vertex="1" parent="1">
          <mxGeometry x="100" y="510" width="120" height="60" as="geometry" />
        </mxCell>
        <mxCell id="1j1bVNgDE6YV_dy9rrkY-16" value="Step 2: Read as many packets as length specifies" style="rounded=0;whiteSpace=wrap;html=1;fillColor=#f8cecc;strokeColor=#b85450;dashed=1;" vertex="1" parent="1">
          <mxGeometry x="240" y="600" width="120" height="60" as="geometry" />
        </mxCell>
        <mxCell id="1j1bVNgDE6YV_dy9rrkY-20" style="edgeStyle=orthogonalEdgeStyle;rounded=0;orthogonalLoop=1;jettySize=auto;html=1;exitX=0.5;exitY=0;exitDx=0;exitDy=0;fillColor=#f8cecc;strokeColor=#b85450;dashed=1;" edge="1" parent="1" source="1j1bVNgDE6YV_dy9rrkY-19" target="1j1bVNgDE6YV_dy9rrkY-21">
          <mxGeometry relative="1" as="geometry">
            <mxPoint x="460" y="460" as="targetPoint" />
          </mxGeometry>
        </mxCell>
        <mxCell id="1j1bVNgDE6YV_dy9rrkY-19" value="Step 3: Decrypt remaining ciphertext blocks" style="rounded=0;whiteSpace=wrap;html=1;fillColor=#f8cecc;strokeColor=#b85450;dashed=1;" vertex="1" parent="1">
          <mxGeometry x="430" y="600" width="120" height="60" as="geometry" />
        </mxCell>
        <mxCell id="1j1bVNgDE6YV_dy9rrkY-21" value="" style="shape=curlyBracket;whiteSpace=wrap;html=1;rounded=1;flipH=1;labelPosition=right;verticalLabelPosition=middle;align=left;verticalAlign=middle;direction=north;" vertex="1" parent="1">
          <mxGeometry x="320" y="450" width="400" height="20" as="geometry" />
        </mxCell>
        <mxCell id="1j1bVNgDE6YV_dy9rrkY-23" style="edgeStyle=orthogonalEdgeStyle;rounded=0;orthogonalLoop=1;jettySize=auto;html=1;exitX=0.5;exitY=0;exitDx=0;exitDy=0;entryX=0.5;entryY=1;entryDx=0;entryDy=0;fillColor=#f8cecc;strokeColor=#b85450;dashed=1;" edge="1" parent="1" source="1j1bVNgDE6YV_dy9rrkY-22" target="1j1bVNgDE6YV_dy9rrkY-6">
          <mxGeometry relative="1" as="geometry" />
        </mxCell>
        <mxCell id="1j1bVNgDE6YV_dy9rrkY-22" value="Step 4: Check MAC tag and send error response if invalid" style="rounded=0;whiteSpace=wrap;html=1;fillColor=#f8cecc;strokeColor=#b85450;dashed=1;" vertex="1" parent="1">
          <mxGeometry x="700" y="600" width="120" height="60" as="geometry" />
        </mxCell>
      </root>
    </mxGraphModel>
  </diagram>
</mxfile>
